<?xml version="1.0" encoding="UTF-8" standalone="no"?>
<!DOCTYPE svg PUBLIC "-//W3C//DTD SVG 1.1//EN" "http://www.w3.org/Graphics/SVG/1.1/DTD/svg11.dtd">
<svg width="100%" height="100%" viewBox="0 0 200 200" version="1.1" xmlns="http://www.w3.org/2000/svg" xmlns:xlink="http://www.w3.org/1999/xlink" xml:space="preserve" xmlns:serif="http://www.serif.com/" style="fill-rule:evenodd;clip-rule:evenodd;stroke-linejoin:round;stroke-miterlimit:1.41421;">
    <g transform="matrix(1,0,0,1,3.55271e-14,-65.9267)">
        <g transform="matrix(1.03701,0,0,1.03701,-7.93483,82.1784)">
            <path d="M71.557,136.392L80.039,128.164C80.039,128.164 88.454,137.066 104.083,137.066C119.711,137.066 128.272,128.278 128.272,128.278L136.608,136.915C136.608,136.915 125.236,149.085 104.083,149.085C82.929,149.085 71.557,136.392 71.557,136.392Z"/>
        </g>
        <g transform="matrix(1.03701,0,0,1.03701,-8.01343,107.822)">
            <path d="M56.029,130.593L64.409,122.336C64.409,122.336 78.902,137.066 104.149,137.066C131.801,137.066 143.608,122.33 143.608,122.33L152.288,130.59C152.288,130.59 135.109,149.085 104.158,149.085C74.064,149.085 56.029,130.593 56.029,130.593Z"/>
        </g>
        <g transform="matrix(1.07457,0,0,1.07457,-13.79,80.7921)">
            <path d="M132.133,58.606C132.133,55.425 129.551,52.842 126.37,52.842L85.417,52.842C82.236,52.842 79.654,55.425 79.654,58.606L79.654,99.558C79.654,102.739 82.236,105.322 85.417,105.322L126.37,105.322C129.551,105.322 132.133,102.739 132.133,99.558L132.133,58.606Z"/>
        </g>
        <g transform="matrix(1.03701,0,0,1.03701,-8.01343,82.1784)">
            <path d="M64.888,94.593L7.727,94.593L7.727,67.141L65.492,67.141L70.997,73.59L70.997,89.004L64.888,94.593"/>
        </g>
        <g transform="matrix(-1.03701,-1.26997e-16,1.26997e-16,-1.03701,208.013,249.899)">
            <path d="M64.888,94.593L7.727,94.593L7.727,67.141L65.492,67.141L70.997,73.59L70.997,89.004L64.888,94.593"/>
        </g>
    </g>
</svg>
